# Blender 3.3.0
# www.blender.org
mtllib spec_cube.mtl
o Cube
v 1.000000 -1.000000 -1.000000
v 1.000000 -1.000000 1.000000
v 1.000000 1.000000 -1.000000
v 1.000000 1.000000 1.000000
v -1.000000 -1.000000 -1.000000
v -1.000000 -1.000000 1.000000
v -1.000000 1.000000 -1.000000
v -1.000000 1.000000 1.000000
vn -1.0000 -0.0000 -0.0000
vn -0.0000 -0.0000 1.0000
vn 1.0000 -0.0000 -0.0000
vn -0.0000 -1.0000 -0.0000
vn -0.0000 -0.0000 -1.0000
vn -0.0000 1.0000 -0.0000
vt 1.000000 1.000000
vt 1.000000 1.000000
vt 1.000000 0.000000
vt 1.000000 1.000000
vt 0.000000 1.000000
vt 1.000000 0.000000
vt -0.000000 0.000000
vt 1.000000 0.000000
vt 0.000000 1.000000
vt 1.000000 1.000000
vt 1.000000 0.000000
vt 0.000000 1.000000
vt -0.000000 0.000000
vt -0.000000 0.000000
vt 0.000000 1.000000
vt -0.000000 0.000000
s 0
usemtl diff
f 5/10/1 8/16/1 7/15/1
f 4/8/2 6/12/2 2/2/2
f 3/5/3 2/3/3 1/1/3
f 1/1/4 6/13/4 5/9/4
f 7/14/5 1/1/5 5/9/5
f 7/15/6 4/8/6 3/4/6
f 5/10/1 6/11/1 8/16/1
f 4/8/2 8/16/2 6/12/2
f 3/5/3 4/7/3 2/3/3
f 1/1/4 2/3/4 6/13/4
f 7/14/5 3/6/5 1/1/5
f 7/15/6 8/16/6 4/8/6
