# Blender 3.3.0
# www.blender.org
mtllib boid.mtl
o Cube
v 1.000000 -1.000000 -0.500000
v 1.000000 -1.000000 1.200000
v 1.000000 1.000000 -0.500000
v 1.000000 1.000000 5.000000
v -1.000000 -1.000000 -0.500000
v -1.000000 -1.000000 1.200000
v -1.000000 1.000000 -0.500000
v -1.000000 1.000000 5.000000
v -1.000000 0.000000 5.000000
v 0.000000 -1.000000 1.200000
v 1.000000 -1.000000 0.000000
v -1.000000 1.000000 -0.000000
v 1.000000 1.000000 -0.000000
v -1.000000 -1.000000 0.000000
v 0.000000 1.000000 -0.500000
v 1.000000 -0.000000 -1.000000
v 0.000000 1.000000 5.000000
v -1.000000 -0.000000 -1.000000
v 0.000000 -1.000000 -0.500000
v 1.000000 0.000000 5.000000
v 0.000000 -1.000000 0.000000
v 0.000000 0.000000 5.000000
v -1.500000 0.000000 0.000000
v 0.000000 1.700000 -0.000000
v 0.000000 -0.000000 -2.240885
v 1.400000 0.000000 -0.000000
vn -0.7429 0.2994 -0.5987
vn -0.2756 0.7875 -0.5512
vn -0.9045 -0.3015 -0.3015
vn -0.0000 -0.0000 1.0000
vn -0.0000 -1.0000 -0.0000
vn 0.9499 -0.3064 0.0613
vn -0.0000 -0.9671 0.2545
vn -0.9249 -0.3729 0.0746
vn -0.9690 0.2423 0.0485
vn -0.9045 0.3015 -0.3015
vn -0.3296 0.9418 0.0659
vn 0.3296 0.9418 0.0659
vn 0.2756 0.7875 -0.5512
vn 0.7429 0.2994 -0.5987
vn 0.7429 -0.2994 -0.5987
vn -0.0000 -0.8671 -0.4981
vn -0.0000 0.8671 -0.4981
vn -0.7429 -0.2994 -0.5987
vn 0.9357 0.2495 -0.2495
vn 0.9357 -0.2495 -0.2495
vn 0.9798 0.1960 0.0392
vt 0.620271 0.973329
vt 0.703776 0.665751
vt 0.832779 0.251510
vt 0.354081 0.875216
vt 0.235923 0.823159
vt 0.390964 0.137711
vt 0.620271 0.000000
vt 0.995136 0.974429
vt 0.916285 0.251510
vt 0.620271 0.665751
vt 0.532140 0.823159
vt 0.968329 0.866667
vt 0.565608 0.702398
vt 0.562402 0.702398
vt 0.800126 0.754531
vt 0.460194 1.000000
vt 0.832779 0.503021
vt 0.916285 0.503021
vt 0.123788 0.957721
vt 0.732406 0.440622
vt 0.267520 0.424000
vt 0.916285 0.503021
vt 0.863771 0.879902
vt 0.067720 0.948530
vt 0.832779 0.503021
vt 0.620271 0.440622
vt 0.262133 0.000000
vt 0.136790 0.565608
vt 0.620271 0.552758
vt 0.732406 0.000000
vt 0.387404 0.000000
vt 0.149998 0.000000
vt 0.348058 0.823159
vt 0.235923 0.957721
vt 0.620271 0.440622
vt 0.508135 0.000000
vt 0.620271 0.917262
vt 0.235923 0.957721
vt 0.387404 0.003195
vt 0.348058 0.930960
vt 0.863771 0.935970
vt 0.262133 0.560677
vt 0.123788 0.948530
vt 0.136790 0.004931
vt 0.004931 0.702398
vt 0.995136 0.918361
vt 0.588208 0.823159
vt 0.001725 0.702398
vt 0.856194 0.754531
vt 0.123788 0.823159
vt 0.460194 0.943932
vt 0.262133 0.558454
vt 0.751635 0.879902
vt 0.883000 0.974429
vt 0.732406 0.453026
vt 0.732406 0.665751
vt 0.832779 0.157997
vt 0.620271 0.759265
vt 0.468133 0.930960
vt 0.468133 0.823159
vt 0.856194 0.866667
vt 0.508135 0.440622
vt 0.024655 0.565608
vt 0.565608 0.590262
vt 0.832779 0.596534
vt 0.732406 0.860039
vt 0.000000 0.843022
vt 0.832779 0.409508
vt 0.732406 0.973329
vt 0.348058 1.000000
vt 0.732406 0.553016
vt 0.732406 0.201515
vt 0.968329 0.754531
vt 0.508135 0.562468
vt 0.620271 0.440622
vt 0.562402 0.814534
vt 0.732406 0.917262
vt 0.348058 0.957721
vt 0.235923 0.823159
vt 0.348058 0.943932
vt 0.856194 0.754531
vt 0.508135 0.552758
vt 0.620271 0.000000
vt 0.508135 0.440622
vt 0.856194 0.879902
vt 0.387404 0.563473
vt 0.136790 0.563319
vt 0.123788 0.823159
vt 0.732406 0.974429
vt 0.000000 0.000000
vt 0.000000 0.565608
vt 0.863771 0.879902
vt 0.916285 0.754531
vt 0.916285 0.000000
vt 0.703776 0.917262
vt 0.832779 0.754531
vt 0.832779 0.251510
vt 0.916285 0.251510
vt 0.832779 0.000000
vt 0.732406 0.440622
vt 0.508135 0.000000
vt 0.588208 0.943932
vt 0.468133 0.943932
vt 0.000000 0.823159
s 0
usemtl diff
f 25/93/1 18/65/1 7/22/1
f 24/89/2 15/53/2 7/23/2 12/41/2
f 23/85/3 18/66/3 5/15/3 14/49/3
f 22/81/4 20/73/4 4/12/4 17/61/4
f 21/77/5 19/69/5 1/1/5 11/37/5
f 10/33/5 21/78/5 11/38/5 2/5/5
f 6/19/5 14/50/5 21/79/5 10/34/5
f 14/51/5 5/16/5 19/70/5 21/80/5
f 2/6/6 11/39/6 26/101/6 20/74/6
f 9/29/4 22/82/4 17/62/4 8/26/4
f 6/20/7 10/35/7 22/83/7 9/30/7
f 10/36/7 2/7/7 20/75/7 22/84/7
f 9/31/8 23/86/8 14/52/8 6/21/8
f 8/27/9 12/42/9 23/87/9 9/32/9
f 12/43/10 7/24/10 18/67/10 23/88/10
f 17/63/11 24/90/11 12/44/11 8/28/11
f 4/13/12 13/45/12 24/91/12 17/64/12
f 13/46/13 3/8/13 15/54/13 24/92/13
f 16/57/14 25/94/14 3/9/14
f 1/2/15 25/95/15 16/58/15
f 19/71/16 5/17/16 25/96/16
f 7/25/17 15/55/17 25/97/17
f 25/98/18 5/18/18 18/68/18
f 25/99/16 1/3/16 19/72/16
f 3/10/17 25/100/17 15/56/17
f 13/47/19 26/102/19 16/59/19 3/11/19
f 16/60/20 26/103/20 11/40/20 1/4/20
f 20/76/21 26/104/21 13/48/21 4/14/21
