# Blender 3.3.0
# www.blender.org
mtllib fsh2.mtl
o Cone
v 0.000000 -1.000000 1.000000
v 0.195090 -0.980785 1.000000
v 0.382683 -0.923879 1.000000
v 0.555570 -0.831470 1.000000
v 0.707107 -0.707107 1.000000
v 0.831470 -0.555570 1.000000
v 0.923880 -0.382683 1.000000
v 0.980785 -0.195090 1.000000
v 1.000000 0.000000 1.000000
v 0.980785 0.195090 1.000000
v 0.923880 0.382683 1.000000
v 0.831470 0.555570 1.000000
v 0.707107 0.707107 1.000000
v 0.555570 0.831470 1.000000
v 0.382683 0.923880 1.000000
v 0.195090 0.980785 1.000000
v 0.000000 1.000000 1.000000
v -0.195090 0.980785 1.000000
v -0.382683 0.923880 1.000000
v -0.555570 0.831470 1.000000
v -0.707107 0.707107 1.000000
v -0.831470 0.555570 1.000000
v -0.923880 0.382683 1.000000
v -0.980785 0.195090 1.000000
v -1.000000 0.000000 1.000000
v -0.980785 -0.195090 1.000000
v -0.923880 -0.382683 1.000000
v -0.831470 -0.555570 1.000000
v -0.707107 -0.707107 1.000000
v -0.555570 -0.831470 1.000000
v -0.382683 -0.923879 1.000000
v -0.195090 -0.980785 1.000000
v 0.000000 -0.000000 -1.000000
vn 0.0878 -0.8910 -0.4455
vn 0.2599 -0.8567 -0.4455
vn 0.4220 -0.7896 -0.4455
vn 0.5680 -0.6921 -0.4455
vn 0.6921 -0.5680 -0.4455
vn 0.7896 -0.4220 -0.4455
vn 0.8567 -0.2599 -0.4455
vn 0.8910 -0.0878 -0.4455
vn 0.8910 0.0878 -0.4455
vn 0.8567 0.2599 -0.4455
vn 0.7896 0.4220 -0.4455
vn 0.6921 0.5680 -0.4455
vn 0.5680 0.6921 -0.4455
vn 0.4220 0.7896 -0.4455
vn 0.2599 0.8567 -0.4455
vn 0.0878 0.8910 -0.4455
vn -0.0878 0.8910 -0.4455
vn -0.2599 0.8567 -0.4455
vn -0.4220 0.7896 -0.4455
vn -0.5680 0.6921 -0.4455
vn -0.6921 0.5680 -0.4455
vn -0.7896 0.4220 -0.4455
vn -0.8567 0.2599 -0.4455
vn -0.8910 0.0878 -0.4455
vn -0.8910 -0.0878 -0.4455
vn -0.8567 -0.2599 -0.4455
vn -0.7896 -0.4220 -0.4455
vn -0.6921 -0.5680 -0.4455
vn -0.5680 -0.6921 -0.4455
vn -0.4220 -0.7896 -0.4455
vn -0.0000 -0.0000 1.0000
vn -0.2599 -0.8567 -0.4455
vn -0.0878 -0.8910 -0.4455
vt 0.848157 0.488320
vt 0.044608 0.072440
vt 0.635562 0.001725
vt 0.848157 0.448960
vt 0.438951 0.447235
vt 0.072440 0.044608
vt 0.478273 0.448960
vt 0.848157 0.645760
vt 0.105167 0.022741
vt 0.848157 0.606400
vt 0.848157 0.881920
vt 0.141531 0.007679
vt 0.848157 0.842560
vt 0.848157 0.606400
vt 0.180134 0.000000
vt 0.848157 0.567040
vt 0.399629 0.447235
vt 0.219494 0.000000
vt 0.438951 0.448960
vt 0.848157 0.724480
vt 0.258098 0.007679
vt 0.848157 0.685120
vt 0.596239 0.000000
vt 0.294462 0.022741
vt 0.556917 0.001725
vt 0.848157 0.763840
vt 0.327188 0.044608
vt 0.848157 0.724480
vt 0.478273 0.447235
vt 0.355020 0.072440
vt 0.517595 0.448960
vt 0.848157 0.685120
vt 0.376887 0.105167
vt 0.848157 0.645760
vt 0.196611 0.846864
vt 0.391950 0.141531
vt 0.235933 0.848589
vt 0.848157 0.803200
vt 0.399629 0.180134
vt 0.848157 0.763840
vt 0.832172 0.000000
vt 0.399629 0.219494
vt 0.792850 0.001725
vt 0.596239 0.447235
vt 0.391950 0.258098
vt 0.635562 0.448960
vt 0.039322 0.399629
vt 0.376887 0.294462
vt 0.000000 0.401354
vt 0.196611 0.399629
vt 0.355020 0.327189
vt 0.157289 0.401354
vt 0.792850 0.000000
vt 0.327188 0.355020
vt 0.753528 0.001725
vt 0.848157 0.960640
vt 0.294462 0.376888
vt 0.848157 0.921280
vt 0.235933 0.846864
vt 0.258098 0.391950
vt 0.275255 0.848589
vt 0.848157 0.842560
vt 0.219494 0.399629
vt 0.848157 0.803200
vt 0.157289 0.399629
vt 0.180134 0.399629
vt 0.117966 0.401354
vt 0.674884 0.447235
vt 0.141531 0.391950
vt 0.714206 0.448960
vt 0.117966 0.399629
vt 0.105167 0.376887
vt 0.078644 0.401354
vt 0.078644 0.399629
vt 0.072440 0.355020
vt 0.039322 0.401354
vt 0.753528 0.000000
vt 0.044608 0.327189
vt 0.714206 0.001725
vt 0.848157 1.000000
vt 0.022741 0.294462
vt 0.848157 0.960640
vt 0.848157 0.921280
vt 0.007679 0.258098
vt 0.848157 0.881920
vt 0.848157 0.567040
vt 0.000000 0.219494
vt 0.848157 0.527680
vt 0.517595 0.447235
vt 0.000000 0.180134
vt 0.556917 0.448960
vt 0.007679 0.141531
vt 0.848157 0.527680
vt 0.022741 0.105167
vt 0.848157 0.488320
vt 0.674884 0.000000
vt 0.399629 0.468640
vt 0.478273 0.000000
vt 0.399629 0.626081
vt 0.399629 0.862240
vt 0.399629 0.586721
vt 0.438951 0.000000
vt 0.399629 0.704800
vt 0.596239 0.448960
vt 0.399629 0.744160
vt 0.517595 0.000000
vt 0.399629 0.665441
vt 0.235933 0.399629
vt 0.399629 0.783520
vt 0.832172 0.448960
vt 0.635562 0.000000
vt 0.039322 0.848589
vt 0.196611 0.848589
vt 0.792850 0.448960
vt 0.399629 0.940960
vt 0.275255 0.399629
vt 0.399629 0.822880
vt 0.157289 0.848589
vt 0.714206 0.000000
vt 0.117966 0.848589
vt 0.078644 0.848589
vt 0.753528 0.448960
vt 0.399629 0.980320
vt 0.399629 0.901600
vt 0.399629 0.547361
vt 0.556917 0.000000
vt 0.399629 0.508000
vt 0.674884 0.448960
s 0
usemtl diff
f 1/1/1 33/97/1 2/4/1
f 2/5/2 33/98/2 3/7/2
f 3/8/3 33/99/3 4/10/3
f 4/11/4 33/100/4 5/13/4
f 5/14/5 33/101/5 6/16/5
f 6/17/6 33/102/6 7/19/6
f 7/20/7 33/103/7 8/22/7
f 8/23/8 33/104/8 9/25/8
f 9/26/9 33/105/9 10/28/9
f 10/29/10 33/106/10 11/31/10
f 11/32/11 33/107/11 12/34/11
f 12/35/12 33/108/12 13/37/12
f 13/38/13 33/109/13 14/40/13
f 14/41/14 33/110/14 15/43/14
f 15/44/15 33/111/15 16/46/15
f 16/47/16 33/112/16 17/49/16
f 17/50/17 33/113/17 18/52/17
f 18/53/18 33/114/18 19/55/18
f 19/56/19 33/115/19 20/58/19
f 20/59/20 33/116/20 21/61/20
f 21/62/21 33/117/21 22/64/21
f 22/65/22 33/118/22 23/67/22
f 23/68/23 33/119/23 24/70/23
f 24/71/24 33/120/24 25/73/24
f 25/74/25 33/121/25 26/76/25
f 26/77/26 33/122/26 27/79/26
f 27/80/27 33/123/27 28/82/27
f 28/83/28 33/124/28 29/85/28
f 29/86/29 33/125/29 30/88/29
f 30/89/30 33/126/30 31/91/30
f 1/2/31 2/6/31 3/9/31 4/12/31 5/15/31 6/18/31 7/21/31 8/24/31 9/27/31 10/30/31 11/33/31 12/36/31 13/39/31 14/42/31 15/45/31 16/48/31 17/51/31 18/54/31 19/57/31 20/60/31 21/63/31 22/66/31 23/69/31 24/72/31 25/75/31 26/78/31 27/81/31 28/84/31 29/87/31 30/90/31 31/92/31 32/94/31
f 31/93/32 33/127/32 32/95/32
f 32/96/33 33/128/33 1/3/33
