# Blender 3.3.0
# www.blender.org
mtllib fsh.mtl
o Cone
v 0.000000 -1.000000 1.000000
v 0.195090 -0.980785 1.000000
v 0.382683 -0.923879 1.000000
v 0.555570 -0.831470 1.000000
v 0.707107 -0.707107 1.000000
v 0.831470 -0.555570 1.000000
v 0.923880 -0.382683 1.000000
v 0.980785 -0.195090 1.000000
v 1.000000 0.000000 1.000000
v 0.980785 0.195090 1.000000
v 0.923880 0.382683 1.000000
v 0.831470 0.555570 1.000000
v 0.707107 0.707107 1.000000
v 0.555570 0.831470 1.000000
v 0.382683 0.923880 1.000000
v 0.195090 0.980785 1.000000
v 0.000000 1.000000 1.000000
v -0.195090 0.980785 1.000000
v -0.382683 0.923880 1.000000
v -0.555570 0.831470 1.000000
v -0.707107 0.707107 1.000000
v -0.831470 0.555570 1.000000
v -0.923880 0.382683 1.000000
v -0.980785 0.195090 1.000000
v -1.000000 0.000000 1.000000
v -0.980785 -0.195090 1.000000
v -0.923880 -0.382683 1.000000
v -0.831470 -0.555570 1.000000
v -0.707107 -0.707107 1.000000
v -0.555570 -0.831470 1.000000
v -0.382683 -0.923879 1.000000
v -0.195090 -0.980785 1.000000
v 0.000000 -0.000000 -1.000000
vn 0.0878 -0.8910 -0.4455
vn 0.2599 -0.8567 -0.4455
vn 0.4220 -0.7896 -0.4455
vn 0.5680 -0.6921 -0.4455
vn 0.6921 -0.5680 -0.4455
vn 0.7896 -0.4220 -0.4455
vn 0.8567 -0.2599 -0.4455
vn 0.8910 -0.0878 -0.4455
vn 0.8910 0.0878 -0.4455
vn 0.8567 0.2599 -0.4455
vn 0.7896 0.4220 -0.4455
vn 0.6921 0.5680 -0.4455
vn 0.5680 0.6921 -0.4455
vn 0.4220 0.7896 -0.4455
vn 0.2599 0.8567 -0.4455
vn 0.0878 0.8910 -0.4455
vn -0.0878 0.8910 -0.4455
vn -0.2599 0.8567 -0.4455
vn -0.4220 0.7896 -0.4455
vn -0.5680 0.6921 -0.4455
vn -0.6921 0.5680 -0.4455
vn -0.7896 0.4220 -0.4455
vn -0.8567 0.2599 -0.4455
vn -0.8910 0.0878 -0.4455
vn -0.8910 -0.0878 -0.4455
vn -0.8567 -0.2599 -0.4455
vn -0.7896 -0.4220 -0.4455
vn -0.6921 -0.5680 -0.4455
vn -0.5680 -0.6921 -0.4455
vn -0.4220 -0.7896 -0.4455
vn -0.0000 -0.0000 1.0000
vn -0.2599 -0.8567 -0.4455
vn -0.0878 -0.8910 -0.4455
vt 0.189043 0.871131
vt 0.475168 0.886503
vt 0.444292 0.889361
vt 0.148531 0.870061
vt 0.419394 0.892932
vt 0.709697 0.771266
vt 0.110368 0.867017
vt 0.672382 0.768726
vt 0.076023 0.862117
vt 0.632279 0.767043
vt 0.046815 0.855549
vt 0.590930 0.766283
vt 0.023866 0.847564
vt 0.549924 0.766474
vt 0.008059 0.838471
vt 0.510836 0.767609
vt 0.000000 0.828618
vt 0.475168 0.769645
vt 0.000000 0.818385
vt 0.444292 0.772503
vt 0.008059 0.808163
vt 0.419394 0.776073
vt 1.000000 0.771266
vt 0.023866 0.798347
vt 0.962685 0.768726
vt 0.046815 0.789314
vt 0.922582 0.767043
vt 0.076023 0.781410
vt 0.881234 0.766283
vt 0.110368 0.774939
vt 0.840227 0.766474
vt 0.148531 0.770150
vt 0.801139 0.767609
vt 0.189044 0.767227
vt 0.765472 0.769645
vt 0.230350 0.766283
vt 0.734595 0.772503
vt 0.270863 0.767353
vt 0.709697 0.776073
vt 0.290303 0.876115
vt 0.309026 0.770397
vt 0.252988 0.873574
vt 0.343371 0.775297
vt 0.212886 0.871892
vt 0.372579 0.781866
vt 0.171537 0.871131
vt 0.395528 0.789850
vt 0.130530 0.871323
vt 0.411335 0.798944
vt 0.091442 0.872458
vt 0.419394 0.808796
vt 0.055775 0.874493
vt 0.419394 0.819030
vt 0.024899 0.877351
vt 0.411335 0.829251
vt 0.000000 0.880922
vt 0.709697 0.888125
vt 0.395528 0.839067
vt 0.672382 0.885585
vt 0.372579 0.848101
vt 0.632279 0.883902
vt 0.343371 0.856005
vt 0.590930 0.883142
vt 0.309025 0.862476
vt 0.270863 0.867264
vt 0.549924 0.883333
vt 0.230350 0.870187
vt 0.510836 0.884468
vt 0.709697 0.883142
vt 1.000000 0.883142
vt 0.290303 0.987990
vt 0.709697 1.000000
s 0
usemtl atls
f 1/2/1 33/72/1 2/3/1
f 2/3/2 33/72/2 3/5/2
f 3/6/3 33/69/3 4/8/3
f 4/8/4 33/69/4 5/10/4
f 5/10/5 33/69/5 6/12/5
f 6/12/6 33/69/6 7/14/6
f 7/14/7 33/69/7 8/16/7
f 8/16/8 33/69/8 9/18/8
f 9/18/9 33/69/9 10/20/9
f 10/20/10 33/69/10 11/22/10
f 11/23/11 33/70/11 12/25/11
f 12/25/12 33/70/12 13/27/12
f 13/27/13 33/70/13 14/29/13
f 14/29/14 33/70/14 15/31/14
f 15/31/15 33/70/15 16/33/15
f 16/33/16 33/70/16 17/35/16
f 17/35/17 33/70/17 18/37/17
f 18/37/18 33/70/18 19/39/18
f 19/40/19 33/71/19 20/42/19
f 20/42/20 33/71/20 21/44/20
f 21/44/21 33/71/21 22/46/21
f 22/46/22 33/71/22 23/48/22
f 23/48/23 33/71/23 24/50/23
f 24/50/24 33/71/24 25/52/24
f 25/52/25 33/71/25 26/54/25
f 26/54/26 33/71/26 27/56/26
f 27/57/27 33/72/27 28/59/27
f 28/59/28 33/72/28 29/61/28
f 29/61/29 33/72/29 30/63/29
f 30/63/30 33/72/30 31/66/30
f 1/1/31 2/4/31 3/7/31 4/9/31 5/11/31 6/13/31 7/15/31 8/17/31 9/19/31 10/21/31 11/24/31 12/26/31 13/28/31 14/30/31 15/32/31 16/34/31 17/36/31 18/38/31 19/41/31 20/43/31 21/45/31 22/47/31 23/49/31 24/51/31 25/53/31 26/55/31 27/58/31 28/60/31 29/62/31 30/64/31 31/65/31 32/67/31
f 31/66/32 33/72/32 32/68/32
f 32/68/33 33/72/33 1/2/33
