{
    "asset" : {
        "generator" : "Khronos glTF Blender I/O v3.3.27",
        "version" : "2.0"
    },
    "scene" : 0,
    "scenes" : [
        {
            "name" : "Scene",
            "nodes" : [
                0,
                8
            ]
        }
    ],
    "nodes" : [
        {
            "name" : "Empty",
            "rotation" : [
                0.5,
                -0.5,
                0.5,
                0.5
            ],
            "translation" : [
                0,
                2.9043211936950684,
                0
            ]
        },
        {
            "name" : "Bone.002",
            "rotation" : [
                1.2110785707619698e-09,
                -3.734904695342948e-16,
                -1.5143850617960197e-08,
                1
            ],
            "translation" : [
                1.3831922274221142e-09,
                0.5302377343177795,
                1.6355983234461746e-10
            ]
        },
        {
            "children" : [
                1
            ],
            "name" : "Bone.001",
            "rotation" : [
                -0.007949629798531532,
                5.877741848792084e-09,
                0.09694435447454453,
                0.995258092880249
            ],
            "translation" : [
                -4.634785000234842e-09,
                0.41175955533981323,
                8.731149137020111e-11
            ]
        },
        {
            "name" : "Bone.005",
            "rotation" : [
                0,
                -1.133254115158797e-16,
                -3.9668575211080455e-16,
                1
            ],
            "translation" : [
                2.6312648372536312e-17,
                0.4920461177825928,
                1.1748468739403314e-16
            ]
        },
        {
            "children" : [
                3
            ],
            "name" : "Bone.004",
            "rotation" : [
                9.313216864370588e-10,
                7.450582373280668e-09,
                -2.2642778318981982e-08,
                1
            ],
            "translation" : [
                -3.128138731626638e-16,
                0.45596811175346375,
                2.940036113326626e-15
            ]
        },
        {
            "children" : [
                4
            ],
            "name" : "Bone.003",
            "rotation" : [
                0.039701130241155624,
                -0.00407616188749671,
                -0.9944659471511841,
                0.09718429297208786
            ],
            "scale" : [
                1.0000001192092896,
                1,
                1
            ],
            "translation" : [
                3.243258106522262e-09,
                -2.9802322387695312e-08,
                5.8207605402316176e-11
            ]
        },
        {
            "children" : [
                2,
                5
            ],
            "name" : "Bone",
            "rotation" : [
                -0.7003113627433777,
                -0.04064672067761421,
                -0.09679263085126877,
                0.7060758471488953
            ],
            "scale" : [
                0.9999999403953552,
                0.9999999403953552,
                1
            ]
        },
        {
            "mesh" : 0,
            "name" : "Cube",
            "skin" : 0
        },
        {
            "children" : [
                7,
                6
            ],
            "name" : "Armature",
            "rotation" : [
                0.7071068286895752,
                0,
                0,
                0.7071068286895752
            ]
        }
    ],
    "animations" : [
        {
            "channels" : [
                {
                    "sampler" : 0,
                    "target" : {
                        "node" : 1,
                        "path" : "translation"
                    }
                },
                {
                    "sampler" : 1,
                    "target" : {
                        "node" : 1,
                        "path" : "rotation"
                    }
                },
                {
                    "sampler" : 2,
                    "target" : {
                        "node" : 1,
                        "path" : "scale"
                    }
                },
                {
                    "sampler" : 3,
                    "target" : {
                        "node" : 6,
                        "path" : "rotation"
                    }
                },
                {
                    "sampler" : 4,
                    "target" : {
                        "node" : 2,
                        "path" : "rotation"
                    }
                },
                {
                    "sampler" : 5,
                    "target" : {
                        "node" : 5,
                        "path" : "rotation"
                    }
                },
                {
                    "sampler" : 6,
                    "target" : {
                        "node" : 5,
                        "path" : "translation"
                    }
                },
                {
                    "sampler" : 7,
                    "target" : {
                        "node" : 5,
                        "path" : "scale"
                    }
                },
                {
                    "sampler" : 8,
                    "target" : {
                        "node" : 4,
                        "path" : "rotation"
                    }
                },
                {
                    "sampler" : 9,
                    "target" : {
                        "node" : 4,
                        "path" : "translation"
                    }
                },
                {
                    "sampler" : 10,
                    "target" : {
                        "node" : 4,
                        "path" : "scale"
                    }
                },
                {
                    "sampler" : 11,
                    "target" : {
                        "node" : 3,
                        "path" : "rotation"
                    }
                },
                {
                    "sampler" : 12,
                    "target" : {
                        "node" : 3,
                        "path" : "translation"
                    }
                },
                {
                    "sampler" : 13,
                    "target" : {
                        "node" : 3,
                        "path" : "scale"
                    }
                }
            ],
            "name" : "ArmatureAction",
            "samplers" : [
                {
                    "input" : 7,
                    "interpolation" : "CUBICSPLINE",
                    "output" : 8
                },
                {
                    "input" : 7,
                    "interpolation" : "CUBICSPLINE",
                    "output" : 9
                },
                {
                    "input" : 7,
                    "interpolation" : "CUBICSPLINE",
                    "output" : 10
                },
                {
                    "input" : 7,
                    "interpolation" : "CUBICSPLINE",
                    "output" : 11
                },
                {
                    "input" : 7,
                    "interpolation" : "CUBICSPLINE",
                    "output" : 12
                },
                {
                    "input" : 7,
                    "interpolation" : "CUBICSPLINE",
                    "output" : 13
                },
                {
                    "input" : 7,
                    "interpolation" : "CUBICSPLINE",
                    "output" : 14
                },
                {
                    "input" : 7,
                    "interpolation" : "CUBICSPLINE",
                    "output" : 15
                },
                {
                    "input" : 7,
                    "interpolation" : "CUBICSPLINE",
                    "output" : 16
                },
                {
                    "input" : 7,
                    "interpolation" : "CUBICSPLINE",
                    "output" : 17
                },
                {
                    "input" : 7,
                    "interpolation" : "CUBICSPLINE",
                    "output" : 18
                },
                {
                    "input" : 7,
                    "interpolation" : "CUBICSPLINE",
                    "output" : 19
                },
                {
                    "input" : 7,
                    "interpolation" : "CUBICSPLINE",
                    "output" : 20
                },
                {
                    "input" : 7,
                    "interpolation" : "CUBICSPLINE",
                    "output" : 21
                }
            ]
        }
    ],
    "materials" : [
        {
            "doubleSided" : true,
            "name" : "diff",
            "pbrMetallicRoughness" : {
                "baseColorTexture" : {
                    "index" : 0
                },
                "metallicFactor" : 0,
                "roughnessFactor" : 0.5
            }
        }
    ],
    "meshes" : [
        {
            "name" : "Cube",
            "primitives" : [
                {
                    "attributes" : {
                        "POSITION" : 0,
                        "NORMAL" : 1,
                        "TEXCOORD_0" : 2,
                        "JOINTS_0" : 3,
                        "WEIGHTS_0" : 4
                    },
                    "indices" : 5,
                    "material" : 0
                }
            ]
        }
    ],
    "textures" : [
        {
            "sampler" : 0,
            "source" : 0
        }
    ],
    "images" : [
        {
            "mimeType" : "image/png",
            "name" : "diff",
            "uri" : "Textures/diff.png"
        }
    ],
    "skins" : [
        {
            "inverseBindMatrices" : 6,
            "joints" : [
                6,
                2,
                1,
                5,
                4,
                3
            ],
            "name" : "Armature"
        }
    ],
    "accessors" : [
        {
            "bufferView" : 0,
            "componentType" : 5126,
            "count" : 770,
            "max" : [
                0.34041401743888855,
                1.9056270122528076,
                0.9124882817268372
            ],
            "min" : [
                -0.3405345678329468,
                -1.9420145750045776,
                -1.1056849956512451
            ],
            "type" : "VEC3"
        },
        {
            "bufferView" : 1,
            "componentType" : 5126,
            "count" : 770,
            "type" : "VEC3"
        },
        {
            "bufferView" : 2,
            "componentType" : 5126,
            "count" : 770,
            "type" : "VEC2"
        },
        {
            "bufferView" : 3,
            "componentType" : 5121,
            "count" : 770,
            "type" : "VEC4"
        },
        {
            "bufferView" : 4,
            "componentType" : 5126,
            "count" : 770,
            "type" : "VEC4"
        },
        {
            "bufferView" : 5,
            "componentType" : 5123,
            "count" : 990,
            "type" : "SCALAR"
        },
        {
            "bufferView" : 6,
            "componentType" : 5126,
            "count" : 6,
            "type" : "MAT4"
        },
        {
            "bufferView" : 7,
            "componentType" : 5126,
            "count" : 3,
            "max" : [
                0.3333333333333333
            ],
            "min" : [
                0
            ],
            "type" : "SCALAR"
        },
        {
            "bufferView" : 8,
            "componentType" : 5126,
            "count" : 9,
            "type" : "VEC3"
        },
        {
            "bufferView" : 9,
            "componentType" : 5126,
            "count" : 9,
            "type" : "VEC4"
        },
        {
            "bufferView" : 10,
            "componentType" : 5126,
            "count" : 9,
            "type" : "VEC3"
        },
        {
            "bufferView" : 11,
            "componentType" : 5126,
            "count" : 9,
            "type" : "VEC4"
        },
        {
            "bufferView" : 12,
            "componentType" : 5126,
            "count" : 9,
            "type" : "VEC4"
        },
        {
            "bufferView" : 13,
            "componentType" : 5126,
            "count" : 9,
            "type" : "VEC4"
        },
        {
            "bufferView" : 14,
            "componentType" : 5126,
            "count" : 9,
            "type" : "VEC3"
        },
        {
            "bufferView" : 15,
            "componentType" : 5126,
            "count" : 9,
            "type" : "VEC3"
        },
        {
            "bufferView" : 16,
            "componentType" : 5126,
            "count" : 9,
            "type" : "VEC4"
        },
        {
            "bufferView" : 17,
            "componentType" : 5126,
            "count" : 9,
            "type" : "VEC3"
        },
        {
            "bufferView" : 18,
            "componentType" : 5126,
            "count" : 9,
            "type" : "VEC3"
        },
        {
            "bufferView" : 19,
            "componentType" : 5126,
            "count" : 9,
            "type" : "VEC4"
        },
        {
            "bufferView" : 20,
            "componentType" : 5126,
            "count" : 9,
            "type" : "VEC3"
        },
        {
            "bufferView" : 21,
            "componentType" : 5126,
            "count" : 9,
            "type" : "VEC3"
        }
    ],
    "bufferViews" : [
        {
            "buffer" : 0,
            "byteLength" : 9240,
            "byteOffset" : 0,
            "target" : 34962
        },
        {
            "buffer" : 0,
            "byteLength" : 9240,
            "byteOffset" : 9240,
            "target" : 34962
        },
        {
            "buffer" : 0,
            "byteLength" : 6160,
            "byteOffset" : 18480,
            "target" : 34962
        },
        {
            "buffer" : 0,
            "byteLength" : 3080,
            "byteOffset" : 24640,
            "target" : 34962
        },
        {
            "buffer" : 0,
            "byteLength" : 12320,
            "byteOffset" : 27720,
            "target" : 34962
        },
        {
            "buffer" : 0,
            "byteLength" : 1980,
            "byteOffset" : 40040,
            "target" : 34963
        },
        {
            "buffer" : 0,
            "byteLength" : 384,
            "byteOffset" : 42020
        },
        {
            "buffer" : 0,
            "byteLength" : 12,
            "byteOffset" : 42404
        },
        {
            "buffer" : 0,
            "byteLength" : 108,
            "byteOffset" : 42416
        },
        {
            "buffer" : 0,
            "byteLength" : 144,
            "byteOffset" : 42524
        },
        {
            "buffer" : 0,
            "byteLength" : 108,
            "byteOffset" : 42668
        },
        {
            "buffer" : 0,
            "byteLength" : 144,
            "byteOffset" : 42776
        },
        {
            "buffer" : 0,
            "byteLength" : 144,
            "byteOffset" : 42920
        },
        {
            "buffer" : 0,
            "byteLength" : 144,
            "byteOffset" : 43064
        },
        {
            "buffer" : 0,
            "byteLength" : 108,
            "byteOffset" : 43208
        },
        {
            "buffer" : 0,
            "byteLength" : 108,
            "byteOffset" : 43316
        },
        {
            "buffer" : 0,
            "byteLength" : 144,
            "byteOffset" : 43424
        },
        {
            "buffer" : 0,
            "byteLength" : 108,
            "byteOffset" : 43568
        },
        {
            "buffer" : 0,
            "byteLength" : 108,
            "byteOffset" : 43676
        },
        {
            "buffer" : 0,
            "byteLength" : 144,
            "byteOffset" : 43784
        },
        {
            "buffer" : 0,
            "byteLength" : 108,
            "byteOffset" : 43928
        },
        {
            "buffer" : 0,
            "byteLength" : 108,
            "byteOffset" : 44036
        }
    ],
    "samplers" : [
        {
            "magFilter" : 9729,
            "minFilter" : 9987
        }
    ],
    "buffers" : [
        {
            "byteLength" : 44144,
            "uri" : "fish_clown.bin"
        }
    ]
}
