{
    "asset" : {
        "generator" : "Khronos glTF Blender I/O v3.3.27",
        "version" : "2.0"
    },
    "scene" : 0,
    "scenes" : [
        {
            "name" : "Scene",
            "nodes" : [
                6
            ]
        }
    ],
    "nodes" : [
        {
            "name" : "Bone.001",
            "rotation" : [
                -5.962441207429947e-09,
                0,
                0,
                1
            ],
            "translation" : [
                0,
                1,
                0
            ]
        },
        {
            "name" : "Bone.004",
            "rotation" : [
                -8.881784197001252e-16,
                -4.70197740328915e-38,
                5.293955920339377e-23,
                1
            ],
            "translation" : [
                -2.3224418459392127e-23,
                0.6427574157714844,
                0
            ]
        },
        {
            "children" : [
                1
            ],
            "name" : "Bone.003",
            "rotation" : [
                5.962442095608367e-09,
                4.371138828673793e-08,
                2.6062650568621146e-16,
                1
            ],
            "translation" : [
                8.109389131476133e-24,
                0.5765910148620605,
                4.440891569105034e-16
            ]
        },
        {
            "children" : [
                2
            ],
            "name" : "Bone.002",
            "rotation" : [
                1,
                0,
                -4.371138828673793e-08,
                1.1924882414859894e-08
            ]
        },
        {
            "children" : [
                0,
                3
            ],
            "name" : "Bone"
        },
        {
            "mesh" : 0,
            "name" : "Cube",
            "skin" : 0
        },
        {
            "children" : [
                5,
                4
            ],
            "name" : "Armature",
            "rotation" : [
                -0.7071068286895752,
                0,
                0,
                0.7071068286895752
            ]
        }
    ],
    "animations" : [
        {
            "channels" : [
                {
                    "sampler" : 0,
                    "target" : {
                        "node" : 4,
                        "path" : "rotation"
                    }
                },
                {
                    "sampler" : 1,
                    "target" : {
                        "node" : 4,
                        "path" : "translation"
                    }
                },
                {
                    "sampler" : 2,
                    "target" : {
                        "node" : 4,
                        "path" : "scale"
                    }
                },
                {
                    "sampler" : 3,
                    "target" : {
                        "node" : 0,
                        "path" : "rotation"
                    }
                },
                {
                    "sampler" : 4,
                    "target" : {
                        "node" : 0,
                        "path" : "translation"
                    }
                },
                {
                    "sampler" : 5,
                    "target" : {
                        "node" : 0,
                        "path" : "scale"
                    }
                },
                {
                    "sampler" : 6,
                    "target" : {
                        "node" : 3,
                        "path" : "rotation"
                    }
                },
                {
                    "sampler" : 7,
                    "target" : {
                        "node" : 3,
                        "path" : "translation"
                    }
                },
                {
                    "sampler" : 8,
                    "target" : {
                        "node" : 3,
                        "path" : "scale"
                    }
                },
                {
                    "sampler" : 9,
                    "target" : {
                        "node" : 2,
                        "path" : "rotation"
                    }
                },
                {
                    "sampler" : 10,
                    "target" : {
                        "node" : 2,
                        "path" : "translation"
                    }
                },
                {
                    "sampler" : 11,
                    "target" : {
                        "node" : 2,
                        "path" : "scale"
                    }
                },
                {
                    "sampler" : 12,
                    "target" : {
                        "node" : 1,
                        "path" : "rotation"
                    }
                },
                {
                    "sampler" : 13,
                    "target" : {
                        "node" : 1,
                        "path" : "translation"
                    }
                },
                {
                    "sampler" : 14,
                    "target" : {
                        "node" : 1,
                        "path" : "scale"
                    }
                }
            ],
            "name" : "ArmatureAction",
            "samplers" : [
                {
                    "input" : 7,
                    "interpolation" : "CUBICSPLINE",
                    "output" : 8
                },
                {
                    "input" : 9,
                    "interpolation" : "CUBICSPLINE",
                    "output" : 10
                },
                {
                    "input" : 9,
                    "interpolation" : "CUBICSPLINE",
                    "output" : 11
                },
                {
                    "input" : 7,
                    "interpolation" : "CUBICSPLINE",
                    "output" : 12
                },
                {
                    "input" : 13,
                    "interpolation" : "STEP",
                    "output" : 14
                },
                {
                    "input" : 7,
                    "interpolation" : "CUBICSPLINE",
                    "output" : 15
                },
                {
                    "input" : 7,
                    "interpolation" : "CUBICSPLINE",
                    "output" : 16
                },
                {
                    "input" : 7,
                    "interpolation" : "CUBICSPLINE",
                    "output" : 17
                },
                {
                    "input" : 7,
                    "interpolation" : "CUBICSPLINE",
                    "output" : 18
                },
                {
                    "input" : 7,
                    "interpolation" : "CUBICSPLINE",
                    "output" : 19
                },
                {
                    "input" : 13,
                    "interpolation" : "STEP",
                    "output" : 20
                },
                {
                    "input" : 7,
                    "interpolation" : "CUBICSPLINE",
                    "output" : 21
                },
                {
                    "input" : 7,
                    "interpolation" : "CUBICSPLINE",
                    "output" : 22
                },
                {
                    "input" : 13,
                    "interpolation" : "STEP",
                    "output" : 23
                },
                {
                    "input" : 7,
                    "interpolation" : "CUBICSPLINE",
                    "output" : 24
                }
            ]
        }
    ],
    "materials" : [
        {
            "doubleSided" : true,
            "name" : "diff",
            "pbrMetallicRoughness" : {
                "baseColorTexture" : {
                    "index" : 0
                },
                "metallicFactor" : 0,
                "roughnessFactor" : 0.5
            }
        }
    ],
    "meshes" : [
        {
            "name" : "Cube",
            "primitives" : [
                {
                    "attributes" : {
                        "POSITION" : 0,
                        "NORMAL" : 1,
                        "TEXCOORD_0" : 2,
                        "JOINTS_0" : 3,
                        "WEIGHTS_0" : 4
                    },
                    "indices" : 5,
                    "material" : 0
                }
            ]
        }
    ],
    "textures" : [
        {
            "sampler" : 0,
            "source" : 0
        }
    ],
    "images" : [
        {
            "mimeType" : "image/png",
            "name" : "diff.png",
            "uri" : "Textures/diff.png"
        }
    ],
    "skins" : [
        {
            "inverseBindMatrices" : 6,
            "joints" : [
                4,
                0,
                3,
                2,
                1
            ],
            "name" : "Armature"
        }
    ],
    "accessors" : [
        {
            "bufferView" : 0,
            "componentType" : 5126,
            "count" : 784,
            "max" : [
                0.5282774567604065,
                0.7369371652603149,
                2.3591294288635254
            ],
            "min" : [
                -0.5166811347007751,
                -0.847362220287323,
                -2.3899998664855957
            ],
            "type" : "VEC3"
        },
        {
            "bufferView" : 1,
            "componentType" : 5126,
            "count" : 784,
            "type" : "VEC3"
        },
        {
            "bufferView" : 2,
            "componentType" : 5126,
            "count" : 784,
            "type" : "VEC2"
        },
        {
            "bufferView" : 3,
            "componentType" : 5121,
            "count" : 784,
            "type" : "VEC4"
        },
        {
            "bufferView" : 4,
            "componentType" : 5126,
            "count" : 784,
            "type" : "VEC4"
        },
        {
            "bufferView" : 5,
            "componentType" : 5123,
            "count" : 1272,
            "type" : "SCALAR"
        },
        {
            "bufferView" : 6,
            "componentType" : 5126,
            "count" : 5,
            "type" : "MAT4"
        },
        {
            "bufferView" : 7,
            "componentType" : 5126,
            "count" : 3,
            "max" : [
                0.75
            ],
            "min" : [
                0.041666666666666664
            ],
            "type" : "SCALAR"
        },
        {
            "bufferView" : 8,
            "componentType" : 5126,
            "count" : 9,
            "type" : "VEC4"
        },
        {
            "bufferView" : 9,
            "componentType" : 5126,
            "count" : 2,
            "max" : [
                0.75
            ],
            "min" : [
                0.375
            ],
            "type" : "SCALAR"
        },
        {
            "bufferView" : 10,
            "componentType" : 5126,
            "count" : 6,
            "type" : "VEC3"
        },
        {
            "bufferView" : 11,
            "componentType" : 5126,
            "count" : 6,
            "type" : "VEC3"
        },
        {
            "bufferView" : 12,
            "componentType" : 5126,
            "count" : 9,
            "type" : "VEC4"
        },
        {
            "bufferView" : 13,
            "componentType" : 5126,
            "count" : 1,
            "max" : [
                0.041666666666666664
            ],
            "min" : [
                0.041666666666666664
            ],
            "type" : "SCALAR"
        },
        {
            "bufferView" : 14,
            "componentType" : 5126,
            "count" : 1,
            "type" : "VEC3"
        },
        {
            "bufferView" : 15,
            "componentType" : 5126,
            "count" : 9,
            "type" : "VEC3"
        },
        {
            "bufferView" : 16,
            "componentType" : 5126,
            "count" : 9,
            "type" : "VEC4"
        },
        {
            "bufferView" : 17,
            "componentType" : 5126,
            "count" : 9,
            "type" : "VEC3"
        },
        {
            "bufferView" : 18,
            "componentType" : 5126,
            "count" : 9,
            "type" : "VEC3"
        },
        {
            "bufferView" : 19,
            "componentType" : 5126,
            "count" : 9,
            "type" : "VEC4"
        },
        {
            "bufferView" : 20,
            "componentType" : 5126,
            "count" : 1,
            "type" : "VEC3"
        },
        {
            "bufferView" : 21,
            "componentType" : 5126,
            "count" : 9,
            "type" : "VEC3"
        },
        {
            "bufferView" : 22,
            "componentType" : 5126,
            "count" : 9,
            "type" : "VEC4"
        },
        {
            "bufferView" : 23,
            "componentType" : 5126,
            "count" : 1,
            "type" : "VEC3"
        },
        {
            "bufferView" : 24,
            "componentType" : 5126,
            "count" : 9,
            "type" : "VEC3"
        }
    ],
    "bufferViews" : [
        {
            "buffer" : 0,
            "byteLength" : 9408,
            "byteOffset" : 0,
            "target" : 34962
        },
        {
            "buffer" : 0,
            "byteLength" : 9408,
            "byteOffset" : 9408,
            "target" : 34962
        },
        {
            "buffer" : 0,
            "byteLength" : 6272,
            "byteOffset" : 18816,
            "target" : 34962
        },
        {
            "buffer" : 0,
            "byteLength" : 3136,
            "byteOffset" : 25088,
            "target" : 34962
        },
        {
            "buffer" : 0,
            "byteLength" : 12544,
            "byteOffset" : 28224,
            "target" : 34962
        },
        {
            "buffer" : 0,
            "byteLength" : 2544,
            "byteOffset" : 40768,
            "target" : 34963
        },
        {
            "buffer" : 0,
            "byteLength" : 320,
            "byteOffset" : 43312
        },
        {
            "buffer" : 0,
            "byteLength" : 12,
            "byteOffset" : 43632
        },
        {
            "buffer" : 0,
            "byteLength" : 144,
            "byteOffset" : 43644
        },
        {
            "buffer" : 0,
            "byteLength" : 8,
            "byteOffset" : 43788
        },
        {
            "buffer" : 0,
            "byteLength" : 72,
            "byteOffset" : 43796
        },
        {
            "buffer" : 0,
            "byteLength" : 72,
            "byteOffset" : 43868
        },
        {
            "buffer" : 0,
            "byteLength" : 144,
            "byteOffset" : 43940
        },
        {
            "buffer" : 0,
            "byteLength" : 4,
            "byteOffset" : 44084
        },
        {
            "buffer" : 0,
            "byteLength" : 12,
            "byteOffset" : 44088
        },
        {
            "buffer" : 0,
            "byteLength" : 108,
            "byteOffset" : 44100
        },
        {
            "buffer" : 0,
            "byteLength" : 144,
            "byteOffset" : 44208
        },
        {
            "buffer" : 0,
            "byteLength" : 108,
            "byteOffset" : 44352
        },
        {
            "buffer" : 0,
            "byteLength" : 108,
            "byteOffset" : 44460
        },
        {
            "buffer" : 0,
            "byteLength" : 144,
            "byteOffset" : 44568
        },
        {
            "buffer" : 0,
            "byteLength" : 12,
            "byteOffset" : 44712
        },
        {
            "buffer" : 0,
            "byteLength" : 108,
            "byteOffset" : 44724
        },
        {
            "buffer" : 0,
            "byteLength" : 144,
            "byteOffset" : 44832
        },
        {
            "buffer" : 0,
            "byteLength" : 12,
            "byteOffset" : 44976
        },
        {
            "buffer" : 0,
            "byteLength" : 108,
            "byteOffset" : 44988
        }
    ],
    "samplers" : [
        {
            "magFilter" : 9729,
            "minFilter" : 9987
        }
    ],
    "buffers" : [
        {
            "byteLength" : 45096,
            "uri" : "fish_spear.bin"
        }
    ]
}
